# xmcd
#
# Track frame offsets: 
#        150
#        16830
#        34163
#
# Disc length: 575 seconds
#
# Revision: 1
# Processed by: cddbd v1.5.2PL0 Copyright (c) Steve Scherf et al.
# Submitted via: ExactAudioCopy v0.99pb5
#
DISCID=18023d03
DTITLE=Oasis - The Importance Of Being Idle
DYEAR=2005
DGENRE=Rock
TTITLE0=The Importance Of Being Idle
TTITLE1=Pass Me Down The Wine
TTITLE2=The Quiet Ones
EXTD=YEAR: 2005
EXTT0=
EXTT1=
EXTT2=
PLAYORDER=
